<?xml version="1.0" encoding="utf-8" standalone="no"?>
<!DOCTYPE svg PUBLIC "-//W3C//DTD SVG 1.1//EN"
  "http://www.w3.org/Graphics/SVG/1.1/DTD/svg11.dtd">
<svg xmlns:xlink="http://www.w3.org/1999/xlink" width="720pt" height="720pt" viewBox="0 0 720 720" xmlns="http://www.w3.org/2000/svg" version="1.1">
 <metadata>
  <rdf:RDF xmlns:dc="http://purl.org/dc/elements/1.1/" xmlns:cc="http://creativecommons.org/ns#" xmlns:rdf="http://www.w3.org/1999/02/22-rdf-syntax-ns#">
   <cc:Work>
    <dc:type rdf:resource="http://purl.org/dc/dcmitype/StillImage"/>
    <dc:date>2022-03-02T20:34:27.304268</dc:date>
    <dc:format>image/svg+xml</dc:format>
    <dc:creator>
     <cc:Agent>
      <dc:title>Matplotlib v3.5.1, https://matplotlib.org/</dc:title>
     </cc:Agent>
    </dc:creator>
   </cc:Work>
  </rdf:RDF>
 </metadata>
 <defs>
  <style type="text/css">*{stroke-linejoin: round; stroke-linecap: butt}</style>
 </defs>
 <g id="figure_1">
  <g id="patch_1">
   <path d="M 0 720 
L 720 720 
L 720 0 
L 0 0 
L 0 720 
z
" style="fill: none"/>
  </g>
  <g id="axes_1">
   <g id="patch_2">
    <path d="M 90 630 
L 648 630 
L 648 86.4 
L 90 86.4 
z
" style="fill: #ffffff"/>
   </g>
   <g id="PathCollection_1">
    <defs>
     <path id="mcec3ad88fa" d="M 0 3 
C 0.795609 3 1.55874 2.683901 2.12132 2.12132 
C 2.683901 1.55874 3 0.795609 3 0 
C 3 -0.795609 2.683901 -1.55874 2.12132 -2.12132 
C 1.55874 -2.683901 0.795609 -3 0 -3 
C -0.795609 -3 -1.55874 -2.683901 -2.12132 -2.12132 
C -2.683901 -1.55874 -3 -0.795609 -3 0 
C -3 0.795609 -2.683901 1.55874 -2.12132 2.12132 
C -1.55874 2.683901 -0.795609 3 0 3 
z
" style="stroke: #1f77b4"/>
    </defs>
    <g clip-path="url(#p0f262b2286)">
     <use xlink:href="#mcec3ad88fa" x="258.784599" y="503.893213" style="fill: #1f77b4; stroke: #1f77b4"/>
     <use xlink:href="#mcec3ad88fa" x="399.397164" y="404.933196" style="fill: #1f77b4; stroke: #1f77b4"/>
    </g>
   </g>
   <g id="patch_3">
    <path d="M 330.047685 604.651137 
C 386.661519 604.011366 440.863403 587.567695 480.716002 558.941653 
C 520.568601 530.31561 542.818127 491.844386 542.56438 452.000821 
C 542.310633 412.157255 519.57433 374.194399 479.362878 346.473131 
C 439.151426 318.751862 384.747912 303.5355 328.134078 304.175272 
C 271.520245 304.815044 217.318361 321.258715 177.465761 349.884757 
C 137.613162 378.510799 115.363636 416.982023 115.617384 456.825589 
C 115.871131 496.669154 138.607434 534.63201 178.818886 562.353279 
C 219.030338 590.074547 273.433852 605.290909 330.047685 604.651137 
z
" clip-path="url(#p0f262b2286)" style="fill: #1f77b4; opacity: 0.2; stroke: #1f77b4; stroke-width: 2; stroke-linejoin: miter"/>
   </g>
   <g id="PathCollection_2">
    <defs>
     <path id="mb01beaa273" d="M 0 3 
C 0.795609 3 1.55874 2.683901 2.12132 2.12132 
C 2.683901 1.55874 3 0.795609 3 0 
C 3 -0.795609 2.683901 -1.55874 2.12132 -2.12132 
C 1.55874 -2.683901 0.795609 -3 0 -3 
C -0.795609 -3 -1.55874 -2.683901 -2.12132 -2.12132 
C -2.683901 -1.55874 -3 -0.795609 -3 0 
C -3 0.795609 -2.683901 1.55874 -2.12132 2.12132 
C -1.55874 2.683901 -0.795609 3 0 3 
z
" style="stroke: #ff7f0e"/>
    </defs>
    <g clip-path="url(#p0f262b2286)">
     <use xlink:href="#mb01beaa273" x="238.823749" y="325.874195" style="fill: #ff7f0e; stroke: #ff7f0e"/>
     <use xlink:href="#mb01beaa273" x="359.853918" y="211.537457" style="fill: #ff7f0e; stroke: #ff7f0e"/>
     <use xlink:href="#mb01beaa273" x="386.607983" y="218.313475" style="fill: #ff7f0e; stroke: #ff7f0e"/>
     <use xlink:href="#mb01beaa273" x="333.000051" y="411.099321" style="fill: #ff7f0e; stroke: #ff7f0e"/>
     <use xlink:href="#mb01beaa273" x="426.238272" y="466.695299" style="fill: #ff7f0e; stroke: #ff7f0e"/>
     <use xlink:href="#mb01beaa273" x="570.198954" y="395.143041" style="fill: #ff7f0e; stroke: #ff7f0e"/>
    </g>
   </g>
   <g id="patch_4">
    <path d="M 384.73163 564.593003 
C 447.470537 565.111838 507.759483 541.745865 552.320529 499.641166 
C 596.881574 457.536468 622.076507 400.130707 622.356435 340.066835 
C 622.636364 280.002964 597.978433 222.184932 553.813265 179.346489 
C 509.648098 136.508046 449.581585 112.146762 386.842679 111.627927 
C 324.103772 111.109091 263.814826 134.475065 219.25378 176.579763 
C 174.692735 218.684461 149.497802 276.090223 149.217874 336.154094 
C 148.937945 396.217965 173.595876 454.035997 217.761044 496.87444 
C 261.926211 539.712883 321.992724 564.074167 384.73163 564.593003 
z
" clip-path="url(#p0f262b2286)" style="fill: #ff7f0e; opacity: 0.2; stroke: #ff7f0e; stroke-width: 2; stroke-linejoin: miter"/>
   </g>
   <g id="matplotlib.axis_1">
    <g id="xtick_1">
     <g id="line2d_1">
      <path d="M 99.171791 630 
L 99.171791 86.4 
" clip-path="url(#p0f262b2286)" style="fill: none; stroke: #b0b0b0; stroke-width: 0.8; stroke-linecap: square"/>
     </g>
     <g id="text_1">
      <!-- −15 -->
      <g transform="translate(88.619447 644.598438)scale(0.1 -0.1)">
       <defs>
        <path id="DejaVuSans-2212" d="M 678 2272 
L 4684 2272 
L 4684 1741 
L 678 1741 
L 678 2272 
z
" transform="scale(0.015625)"/>
        <path id="DejaVuSans-31" d="M 794 531 
L 1825 531 
L 1825 4091 
L 703 3866 
L 703 4441 
L 1819 4666 
L 2450 4666 
L 2450 531 
L 3481 531 
L 3481 0 
L 794 0 
L 794 531 
z
" transform="scale(0.015625)"/>
        <path id="DejaVuSans-35" d="M 691 4666 
L 3169 4666 
L 3169 4134 
L 1269 4134 
L 1269 2991 
Q 1406 3038 1543 3061 
Q 1681 3084 1819 3084 
Q 2600 3084 3056 2656 
Q 3513 2228 3513 1497 
Q 3513 744 3044 326 
Q 2575 -91 1722 -91 
Q 1428 -91 1123 -41 
Q 819 9 494 109 
L 494 744 
Q 775 591 1075 516 
Q 1375 441 1709 441 
Q 2250 441 2565 725 
Q 2881 1009 2881 1497 
Q 2881 1984 2565 2268 
Q 2250 2553 1709 2553 
Q 1456 2553 1204 2497 
Q 953 2441 691 2322 
L 691 4666 
z
" transform="scale(0.015625)"/>
       </defs>
       <use xlink:href="#DejaVuSans-2212"/>
       <use xlink:href="#DejaVuSans-31" x="83.789062"/>
       <use xlink:href="#DejaVuSans-35" x="147.412109"/>
      </g>
     </g>
    </g>
    <g id="xtick_2">
     <g id="line2d_2">
      <path d="M 189.985556 630 
L 189.985556 86.4 
" clip-path="url(#p0f262b2286)" style="fill: none; stroke: #b0b0b0; stroke-width: 0.8; stroke-linecap: square"/>
     </g>
     <g id="text_2">
      <!-- −10 -->
      <g transform="translate(179.433212 644.598438)scale(0.1 -0.1)">
       <defs>
        <path id="DejaVuSans-30" d="M 2034 4250 
Q 1547 4250 1301 3770 
Q 1056 3291 1056 2328 
Q 1056 1369 1301 889 
Q 1547 409 2034 409 
Q 2525 409 2770 889 
Q 3016 1369 3016 2328 
Q 3016 3291 2770 3770 
Q 2525 4250 2034 4250 
z
M 2034 4750 
Q 2819 4750 3233 4129 
Q 3647 3509 3647 2328 
Q 3647 1150 3233 529 
Q 2819 -91 2034 -91 
Q 1250 -91 836 529 
Q 422 1150 422 2328 
Q 422 3509 836 4129 
Q 1250 4750 2034 4750 
z
" transform="scale(0.015625)"/>
       </defs>
       <use xlink:href="#DejaVuSans-2212"/>
       <use xlink:href="#DejaVuSans-31" x="83.789062"/>
       <use xlink:href="#DejaVuSans-30" x="147.412109"/>
      </g>
     </g>
    </g>
    <g id="xtick_3">
     <g id="line2d_3">
      <path d="M 280.799321 630 
L 280.799321 86.4 
" clip-path="url(#p0f262b2286)" style="fill: none; stroke: #b0b0b0; stroke-width: 0.8; stroke-linecap: square"/>
     </g>
     <g id="text_3">
      <!-- −5 -->
      <g transform="translate(273.428227 644.598438)scale(0.1 -0.1)">
       <use xlink:href="#DejaVuSans-2212"/>
       <use xlink:href="#DejaVuSans-35" x="83.789062"/>
      </g>
     </g>
    </g>
    <g id="xtick_4">
     <g id="line2d_4">
      <path d="M 371.613086 630 
L 371.613086 86.4 
" clip-path="url(#p0f262b2286)" style="fill: none; stroke: #b0b0b0; stroke-width: 0.8; stroke-linecap: square"/>
     </g>
     <g id="text_4">
      <!-- 0 -->
      <g transform="translate(368.431836 644.598438)scale(0.1 -0.1)">
       <use xlink:href="#DejaVuSans-30"/>
      </g>
     </g>
    </g>
    <g id="xtick_5">
     <g id="line2d_5">
      <path d="M 462.426852 630 
L 462.426852 86.4 
" clip-path="url(#p0f262b2286)" style="fill: none; stroke: #b0b0b0; stroke-width: 0.8; stroke-linecap: square"/>
     </g>
     <g id="text_5">
      <!-- 5 -->
      <g transform="translate(459.245602 644.598438)scale(0.1 -0.1)">
       <use xlink:href="#DejaVuSans-35"/>
      </g>
     </g>
    </g>
    <g id="xtick_6">
     <g id="line2d_6">
      <path d="M 553.240617 630 
L 553.240617 86.4 
" clip-path="url(#p0f262b2286)" style="fill: none; stroke: #b0b0b0; stroke-width: 0.8; stroke-linecap: square"/>
     </g>
     <g id="text_6">
      <!-- 10 -->
      <g transform="translate(546.878117 644.598438)scale(0.1 -0.1)">
       <use xlink:href="#DejaVuSans-31"/>
       <use xlink:href="#DejaVuSans-30" x="63.623047"/>
      </g>
     </g>
    </g>
    <g id="xtick_7">
     <g id="line2d_7">
      <path d="M 644.054382 630 
L 644.054382 86.4 
" clip-path="url(#p0f262b2286)" style="fill: none; stroke: #b0b0b0; stroke-width: 0.8; stroke-linecap: square"/>
     </g>
     <g id="text_7">
      <!-- 15 -->
      <g transform="translate(637.691882 644.598438)scale(0.1 -0.1)">
       <use xlink:href="#DejaVuSans-31"/>
       <use xlink:href="#DejaVuSans-35" x="63.623047"/>
      </g>
     </g>
    </g>
    <g id="text_8">
     <!-- Component 0 (28.57% inertia) -->
     <g transform="translate(292.953125 658.276562)scale(0.1 -0.1)">
      <defs>
       <path id="DejaVuSans-43" d="M 4122 4306 
L 4122 3641 
Q 3803 3938 3442 4084 
Q 3081 4231 2675 4231 
Q 1875 4231 1450 3742 
Q 1025 3253 1025 2328 
Q 1025 1406 1450 917 
Q 1875 428 2675 428 
Q 3081 428 3442 575 
Q 3803 722 4122 1019 
L 4122 359 
Q 3791 134 3420 21 
Q 3050 -91 2638 -91 
Q 1578 -91 968 557 
Q 359 1206 359 2328 
Q 359 3453 968 4101 
Q 1578 4750 2638 4750 
Q 3056 4750 3426 4639 
Q 3797 4528 4122 4306 
z
" transform="scale(0.015625)"/>
       <path id="DejaVuSans-6f" d="M 1959 3097 
Q 1497 3097 1228 2736 
Q 959 2375 959 1747 
Q 959 1119 1226 758 
Q 1494 397 1959 397 
Q 2419 397 2687 759 
Q 2956 1122 2956 1747 
Q 2956 2369 2687 2733 
Q 2419 3097 1959 3097 
z
M 1959 3584 
Q 2709 3584 3137 3096 
Q 3566 2609 3566 1747 
Q 3566 888 3137 398 
Q 2709 -91 1959 -91 
Q 1206 -91 779 398 
Q 353 888 353 1747 
Q 353 2609 779 3096 
Q 1206 3584 1959 3584 
z
" transform="scale(0.015625)"/>
       <path id="DejaVuSans-6d" d="M 3328 2828 
Q 3544 3216 3844 3400 
Q 4144 3584 4550 3584 
Q 5097 3584 5394 3201 
Q 5691 2819 5691 2113 
L 5691 0 
L 5113 0 
L 5113 2094 
Q 5113 2597 4934 2840 
Q 4756 3084 4391 3084 
Q 3944 3084 3684 2787 
Q 3425 2491 3425 1978 
L 3425 0 
L 2847 0 
L 2847 2094 
Q 2847 2600 2669 2842 
Q 2491 3084 2119 3084 
Q 1678 3084 1418 2786 
Q 1159 2488 1159 1978 
L 1159 0 
L 581 0 
L 581 3500 
L 1159 3500 
L 1159 2956 
Q 1356 3278 1631 3431 
Q 1906 3584 2284 3584 
Q 2666 3584 2933 3390 
Q 3200 3197 3328 2828 
z
" transform="scale(0.015625)"/>
       <path id="DejaVuSans-70" d="M 1159 525 
L 1159 -1331 
L 581 -1331 
L 581 3500 
L 1159 3500 
L 1159 2969 
Q 1341 3281 1617 3432 
Q 1894 3584 2278 3584 
Q 2916 3584 3314 3078 
Q 3713 2572 3713 1747 
Q 3713 922 3314 415 
Q 2916 -91 2278 -91 
Q 1894 -91 1617 61 
Q 1341 213 1159 525 
z
M 3116 1747 
Q 3116 2381 2855 2742 
Q 2594 3103 2138 3103 
Q 1681 3103 1420 2742 
Q 1159 2381 1159 1747 
Q 1159 1113 1420 752 
Q 1681 391 2138 391 
Q 2594 391 2855 752 
Q 3116 1113 3116 1747 
z
" transform="scale(0.015625)"/>
       <path id="DejaVuSans-6e" d="M 3513 2113 
L 3513 0 
L 2938 0 
L 2938 2094 
Q 2938 2591 2744 2837 
Q 2550 3084 2163 3084 
Q 1697 3084 1428 2787 
Q 1159 2491 1159 1978 
L 1159 0 
L 581 0 
L 581 3500 
L 1159 3500 
L 1159 2956 
Q 1366 3272 1645 3428 
Q 1925 3584 2291 3584 
Q 2894 3584 3203 3211 
Q 3513 2838 3513 2113 
z
" transform="scale(0.015625)"/>
       <path id="DejaVuSans-65" d="M 3597 1894 
L 3597 1613 
L 953 1613 
Q 991 1019 1311 708 
Q 1631 397 2203 397 
Q 2534 397 2845 478 
Q 3156 559 3463 722 
L 3463 178 
Q 3153 47 2828 -22 
Q 2503 -91 2169 -91 
Q 1331 -91 842 396 
Q 353 884 353 1716 
Q 353 2575 817 3079 
Q 1281 3584 2069 3584 
Q 2775 3584 3186 3129 
Q 3597 2675 3597 1894 
z
M 3022 2063 
Q 3016 2534 2758 2815 
Q 2500 3097 2075 3097 
Q 1594 3097 1305 2825 
Q 1016 2553 972 2059 
L 3022 2063 
z
" transform="scale(0.015625)"/>
       <path id="DejaVuSans-74" d="M 1172 4494 
L 1172 3500 
L 2356 3500 
L 2356 3053 
L 1172 3053 
L 1172 1153 
Q 1172 725 1289 603 
Q 1406 481 1766 481 
L 2356 481 
L 2356 0 
L 1766 0 
Q 1100 0 847 248 
Q 594 497 594 1153 
L 594 3053 
L 172 3053 
L 172 3500 
L 594 3500 
L 594 4494 
L 1172 4494 
z
" transform="scale(0.015625)"/>
       <path id="DejaVuSans-20" transform="scale(0.015625)"/>
       <path id="DejaVuSans-28" d="M 1984 4856 
Q 1566 4138 1362 3434 
Q 1159 2731 1159 2009 
Q 1159 1288 1364 580 
Q 1569 -128 1984 -844 
L 1484 -844 
Q 1016 -109 783 600 
Q 550 1309 550 2009 
Q 550 2706 781 3412 
Q 1013 4119 1484 4856 
L 1984 4856 
z
" transform="scale(0.015625)"/>
       <path id="DejaVuSans-32" d="M 1228 531 
L 3431 531 
L 3431 0 
L 469 0 
L 469 531 
Q 828 903 1448 1529 
Q 2069 2156 2228 2338 
Q 2531 2678 2651 2914 
Q 2772 3150 2772 3378 
Q 2772 3750 2511 3984 
Q 2250 4219 1831 4219 
Q 1534 4219 1204 4116 
Q 875 4013 500 3803 
L 500 4441 
Q 881 4594 1212 4672 
Q 1544 4750 1819 4750 
Q 2544 4750 2975 4387 
Q 3406 4025 3406 3419 
Q 3406 3131 3298 2873 
Q 3191 2616 2906 2266 
Q 2828 2175 2409 1742 
Q 1991 1309 1228 531 
z
" transform="scale(0.015625)"/>
       <path id="DejaVuSans-38" d="M 2034 2216 
Q 1584 2216 1326 1975 
Q 1069 1734 1069 1313 
Q 1069 891 1326 650 
Q 1584 409 2034 409 
Q 2484 409 2743 651 
Q 3003 894 3003 1313 
Q 3003 1734 2745 1975 
Q 2488 2216 2034 2216 
z
M 1403 2484 
Q 997 2584 770 2862 
Q 544 3141 544 3541 
Q 544 4100 942 4425 
Q 1341 4750 2034 4750 
Q 2731 4750 3128 4425 
Q 3525 4100 3525 3541 
Q 3525 3141 3298 2862 
Q 3072 2584 2669 2484 
Q 3125 2378 3379 2068 
Q 3634 1759 3634 1313 
Q 3634 634 3220 271 
Q 2806 -91 2034 -91 
Q 1263 -91 848 271 
Q 434 634 434 1313 
Q 434 1759 690 2068 
Q 947 2378 1403 2484 
z
M 1172 3481 
Q 1172 3119 1398 2916 
Q 1625 2713 2034 2713 
Q 2441 2713 2670 2916 
Q 2900 3119 2900 3481 
Q 2900 3844 2670 4047 
Q 2441 4250 2034 4250 
Q 1625 4250 1398 4047 
Q 1172 3844 1172 3481 
z
" transform="scale(0.015625)"/>
       <path id="DejaVuSans-2e" d="M 684 794 
L 1344 794 
L 1344 0 
L 684 0 
L 684 794 
z
" transform="scale(0.015625)"/>
       <path id="DejaVuSans-37" d="M 525 4666 
L 3525 4666 
L 3525 4397 
L 1831 0 
L 1172 0 
L 2766 4134 
L 525 4134 
L 525 4666 
z
" transform="scale(0.015625)"/>
       <path id="DejaVuSans-25" d="M 4653 2053 
Q 4381 2053 4226 1822 
Q 4072 1591 4072 1178 
Q 4072 772 4226 539 
Q 4381 306 4653 306 
Q 4919 306 5073 539 
Q 5228 772 5228 1178 
Q 5228 1588 5073 1820 
Q 4919 2053 4653 2053 
z
M 4653 2450 
Q 5147 2450 5437 2106 
Q 5728 1763 5728 1178 
Q 5728 594 5436 251 
Q 5144 -91 4653 -91 
Q 4153 -91 3862 251 
Q 3572 594 3572 1178 
Q 3572 1766 3864 2108 
Q 4156 2450 4653 2450 
z
M 1428 4353 
Q 1159 4353 1004 4120 
Q 850 3888 850 3481 
Q 850 3069 1003 2837 
Q 1156 2606 1428 2606 
Q 1700 2606 1854 2837 
Q 2009 3069 2009 3481 
Q 2009 3884 1853 4118 
Q 1697 4353 1428 4353 
z
M 4250 4750 
L 4750 4750 
L 1831 -91 
L 1331 -91 
L 4250 4750 
z
M 1428 4750 
Q 1922 4750 2215 4408 
Q 2509 4066 2509 3481 
Q 2509 2891 2217 2550 
Q 1925 2209 1428 2209 
Q 931 2209 642 2551 
Q 353 2894 353 3481 
Q 353 4063 643 4406 
Q 934 4750 1428 4750 
z
" transform="scale(0.015625)"/>
       <path id="DejaVuSans-69" d="M 603 3500 
L 1178 3500 
L 1178 0 
L 603 0 
L 603 3500 
z
M 603 4863 
L 1178 4863 
L 1178 4134 
L 603 4134 
L 603 4863 
z
" transform="scale(0.015625)"/>
       <path id="DejaVuSans-72" d="M 2631 2963 
Q 2534 3019 2420 3045 
Q 2306 3072 2169 3072 
Q 1681 3072 1420 2755 
Q 1159 2438 1159 1844 
L 1159 0 
L 581 0 
L 581 3500 
L 1159 3500 
L 1159 2956 
Q 1341 3275 1631 3429 
Q 1922 3584 2338 3584 
Q 2397 3584 2469 3576 
Q 2541 3569 2628 3553 
L 2631 2963 
z
" transform="scale(0.015625)"/>
       <path id="DejaVuSans-61" d="M 2194 1759 
Q 1497 1759 1228 1600 
Q 959 1441 959 1056 
Q 959 750 1161 570 
Q 1363 391 1709 391 
Q 2188 391 2477 730 
Q 2766 1069 2766 1631 
L 2766 1759 
L 2194 1759 
z
M 3341 1997 
L 3341 0 
L 2766 0 
L 2766 531 
Q 2569 213 2275 61 
Q 1981 -91 1556 -91 
Q 1019 -91 701 211 
Q 384 513 384 1019 
Q 384 1609 779 1909 
Q 1175 2209 1959 2209 
L 2766 2209 
L 2766 2266 
Q 2766 2663 2505 2880 
Q 2244 3097 1772 3097 
Q 1472 3097 1187 3025 
Q 903 2953 641 2809 
L 641 3341 
Q 956 3463 1253 3523 
Q 1550 3584 1831 3584 
Q 2591 3584 2966 3190 
Q 3341 2797 3341 1997 
z
" transform="scale(0.015625)"/>
       <path id="DejaVuSans-29" d="M 513 4856 
L 1013 4856 
Q 1481 4119 1714 3412 
Q 1947 2706 1947 2009 
Q 1947 1309 1714 600 
Q 1481 -109 1013 -844 
L 513 -844 
Q 928 -128 1133 580 
Q 1338 1288 1338 2009 
Q 1338 2731 1133 3434 
Q 928 4138 513 4856 
z
" transform="scale(0.015625)"/>
      </defs>
      <use xlink:href="#DejaVuSans-43"/>
      <use xlink:href="#DejaVuSans-6f" x="69.824219"/>
      <use xlink:href="#DejaVuSans-6d" x="131.005859"/>
      <use xlink:href="#DejaVuSans-70" x="228.417969"/>
      <use xlink:href="#DejaVuSans-6f" x="291.894531"/>
      <use xlink:href="#DejaVuSans-6e" x="353.076172"/>
      <use xlink:href="#DejaVuSans-65" x="416.455078"/>
      <use xlink:href="#DejaVuSans-6e" x="477.978516"/>
      <use xlink:href="#DejaVuSans-74" x="541.357422"/>
      <use xlink:href="#DejaVuSans-20" x="580.566406"/>
      <use xlink:href="#DejaVuSans-30" x="612.353516"/>
      <use xlink:href="#DejaVuSans-20" x="675.976562"/>
      <use xlink:href="#DejaVuSans-28" x="707.763672"/>
      <use xlink:href="#DejaVuSans-32" x="746.777344"/>
      <use xlink:href="#DejaVuSans-38" x="810.400391"/>
      <use xlink:href="#DejaVuSans-2e" x="874.023438"/>
      <use xlink:href="#DejaVuSans-35" x="905.810547"/>
      <use xlink:href="#DejaVuSans-37" x="969.433594"/>
      <use xlink:href="#DejaVuSans-25" x="1033.056641"/>
      <use xlink:href="#DejaVuSans-20" x="1128.076172"/>
      <use xlink:href="#DejaVuSans-69" x="1159.863281"/>
      <use xlink:href="#DejaVuSans-6e" x="1187.646484"/>
      <use xlink:href="#DejaVuSans-65" x="1251.025391"/>
      <use xlink:href="#DejaVuSans-72" x="1312.548828"/>
      <use xlink:href="#DejaVuSans-74" x="1353.662109"/>
      <use xlink:href="#DejaVuSans-69" x="1392.871094"/>
      <use xlink:href="#DejaVuSans-61" x="1420.654297"/>
      <use xlink:href="#DejaVuSans-29" x="1481.933594"/>
     </g>
    </g>
   </g>
   <g id="matplotlib.axis_2">
    <g id="ytick_1">
     <g id="line2d_8">
      <path d="M 90 609.128208 
L 648 609.128208 
" clip-path="url(#p0f262b2286)" style="fill: none; stroke: #b0b0b0; stroke-width: 0.8; stroke-linecap: square"/>
     </g>
     <g id="text_9">
      <!-- −10.0 -->
      <g transform="translate(52.354687 612.927427)scale(0.1 -0.1)">
       <use xlink:href="#DejaVuSans-2212"/>
       <use xlink:href="#DejaVuSans-31" x="83.789062"/>
       <use xlink:href="#DejaVuSans-30" x="147.412109"/>
       <use xlink:href="#DejaVuSans-2e" x="211.035156"/>
       <use xlink:href="#DejaVuSans-30" x="242.822266"/>
      </g>
     </g>
    </g>
    <g id="ytick_2">
     <g id="line2d_9">
      <path d="M 90 548.642694 
L 648 548.642694 
" clip-path="url(#p0f262b2286)" style="fill: none; stroke: #b0b0b0; stroke-width: 0.8; stroke-linecap: square"/>
     </g>
     <g id="text_10">
      <!-- −7.5 -->
      <g transform="translate(58.717187 552.441912)scale(0.1 -0.1)">
       <use xlink:href="#DejaVuSans-2212"/>
       <use xlink:href="#DejaVuSans-37" x="83.789062"/>
       <use xlink:href="#DejaVuSans-2e" x="147.412109"/>
       <use xlink:href="#DejaVuSans-35" x="179.199219"/>
      </g>
     </g>
    </g>
    <g id="ytick_3">
     <g id="line2d_10">
      <path d="M 90 488.157179 
L 648 488.157179 
" clip-path="url(#p0f262b2286)" style="fill: none; stroke: #b0b0b0; stroke-width: 0.8; stroke-linecap: square"/>
     </g>
     <g id="text_11">
      <!-- −5.0 -->
      <g transform="translate(58.717187 491.956398)scale(0.1 -0.1)">
       <use xlink:href="#DejaVuSans-2212"/>
       <use xlink:href="#DejaVuSans-35" x="83.789062"/>
       <use xlink:href="#DejaVuSans-2e" x="147.412109"/>
       <use xlink:href="#DejaVuSans-30" x="179.199219"/>
      </g>
     </g>
    </g>
    <g id="ytick_4">
     <g id="line2d_11">
      <path d="M 90 427.671664 
L 648 427.671664 
" clip-path="url(#p0f262b2286)" style="fill: none; stroke: #b0b0b0; stroke-width: 0.8; stroke-linecap: square"/>
     </g>
     <g id="text_12">
      <!-- −2.5 -->
      <g transform="translate(58.717187 431.470883)scale(0.1 -0.1)">
       <use xlink:href="#DejaVuSans-2212"/>
       <use xlink:href="#DejaVuSans-32" x="83.789062"/>
       <use xlink:href="#DejaVuSans-2e" x="147.412109"/>
       <use xlink:href="#DejaVuSans-35" x="179.199219"/>
      </g>
     </g>
    </g>
    <g id="ytick_5">
     <g id="line2d_12">
      <path d="M 90 367.18615 
L 648 367.18615 
" clip-path="url(#p0f262b2286)" style="fill: none; stroke: #b0b0b0; stroke-width: 0.8; stroke-linecap: square"/>
     </g>
     <g id="text_13">
      <!-- 0.0 -->
      <g transform="translate(67.096875 370.985368)scale(0.1 -0.1)">
       <use xlink:href="#DejaVuSans-30"/>
       <use xlink:href="#DejaVuSans-2e" x="63.623047"/>
       <use xlink:href="#DejaVuSans-30" x="95.410156"/>
      </g>
     </g>
    </g>
    <g id="ytick_6">
     <g id="line2d_13">
      <path d="M 90 306.700635 
L 648 306.700635 
" clip-path="url(#p0f262b2286)" style="fill: none; stroke: #b0b0b0; stroke-width: 0.8; stroke-linecap: square"/>
     </g>
     <g id="text_14">
      <!-- 2.5 -->
      <g transform="translate(67.096875 310.499854)scale(0.1 -0.1)">
       <use xlink:href="#DejaVuSans-32"/>
       <use xlink:href="#DejaVuSans-2e" x="63.623047"/>
       <use xlink:href="#DejaVuSans-35" x="95.410156"/>
      </g>
     </g>
    </g>
    <g id="ytick_7">
     <g id="line2d_14">
      <path d="M 90 246.21512 
L 648 246.21512 
" clip-path="url(#p0f262b2286)" style="fill: none; stroke: #b0b0b0; stroke-width: 0.8; stroke-linecap: square"/>
     </g>
     <g id="text_15">
      <!-- 5.0 -->
      <g transform="translate(67.096875 250.014339)scale(0.1 -0.1)">
       <use xlink:href="#DejaVuSans-35"/>
       <use xlink:href="#DejaVuSans-2e" x="63.623047"/>
       <use xlink:href="#DejaVuSans-30" x="95.410156"/>
      </g>
     </g>
    </g>
    <g id="ytick_8">
     <g id="line2d_15">
      <path d="M 90 185.729606 
L 648 185.729606 
" clip-path="url(#p0f262b2286)" style="fill: none; stroke: #b0b0b0; stroke-width: 0.8; stroke-linecap: square"/>
     </g>
     <g id="text_16">
      <!-- 7.5 -->
      <g transform="translate(67.096875 189.528824)scale(0.1 -0.1)">
       <use xlink:href="#DejaVuSans-37"/>
       <use xlink:href="#DejaVuSans-2e" x="63.623047"/>
       <use xlink:href="#DejaVuSans-35" x="95.410156"/>
      </g>
     </g>
    </g>
    <g id="ytick_9">
     <g id="line2d_16">
      <path d="M 90 125.244091 
L 648 125.244091 
" clip-path="url(#p0f262b2286)" style="fill: none; stroke: #b0b0b0; stroke-width: 0.8; stroke-linecap: square"/>
     </g>
     <g id="text_17">
      <!-- 10.0 -->
      <g transform="translate(60.734375 129.04331)scale(0.1 -0.1)">
       <use xlink:href="#DejaVuSans-31"/>
       <use xlink:href="#DejaVuSans-30" x="63.623047"/>
       <use xlink:href="#DejaVuSans-2e" x="127.246094"/>
       <use xlink:href="#DejaVuSans-30" x="159.033203"/>
      </g>
     </g>
    </g>
    <g id="text_18">
     <!-- Component 1 (17.26% inertia) -->
     <g transform="translate(46.275 434.246875)rotate(-90)scale(0.1 -0.1)">
      <defs>
       <path id="DejaVuSans-36" d="M 2113 2584 
Q 1688 2584 1439 2293 
Q 1191 2003 1191 1497 
Q 1191 994 1439 701 
Q 1688 409 2113 409 
Q 2538 409 2786 701 
Q 3034 994 3034 1497 
Q 3034 2003 2786 2293 
Q 2538 2584 2113 2584 
z
M 3366 4563 
L 3366 3988 
Q 3128 4100 2886 4159 
Q 2644 4219 2406 4219 
Q 1781 4219 1451 3797 
Q 1122 3375 1075 2522 
Q 1259 2794 1537 2939 
Q 1816 3084 2150 3084 
Q 2853 3084 3261 2657 
Q 3669 2231 3669 1497 
Q 3669 778 3244 343 
Q 2819 -91 2113 -91 
Q 1303 -91 875 529 
Q 447 1150 447 2328 
Q 447 3434 972 4092 
Q 1497 4750 2381 4750 
Q 2619 4750 2861 4703 
Q 3103 4656 3366 4563 
z
" transform="scale(0.015625)"/>
      </defs>
      <use xlink:href="#DejaVuSans-43"/>
      <use xlink:href="#DejaVuSans-6f" x="69.824219"/>
      <use xlink:href="#DejaVuSans-6d" x="131.005859"/>
      <use xlink:href="#DejaVuSans-70" x="228.417969"/>
      <use xlink:href="#DejaVuSans-6f" x="291.894531"/>
      <use xlink:href="#DejaVuSans-6e" x="353.076172"/>
      <use xlink:href="#DejaVuSans-65" x="416.455078"/>
      <use xlink:href="#DejaVuSans-6e" x="477.978516"/>
      <use xlink:href="#DejaVuSans-74" x="541.357422"/>
      <use xlink:href="#DejaVuSans-20" x="580.566406"/>
      <use xlink:href="#DejaVuSans-31" x="612.353516"/>
      <use xlink:href="#DejaVuSans-20" x="675.976562"/>
      <use xlink:href="#DejaVuSans-28" x="707.763672"/>
      <use xlink:href="#DejaVuSans-31" x="746.777344"/>
      <use xlink:href="#DejaVuSans-37" x="810.400391"/>
      <use xlink:href="#DejaVuSans-2e" x="874.023438"/>
      <use xlink:href="#DejaVuSans-32" x="905.810547"/>
      <use xlink:href="#DejaVuSans-36" x="969.433594"/>
      <use xlink:href="#DejaVuSans-25" x="1033.056641"/>
      <use xlink:href="#DejaVuSans-20" x="1128.076172"/>
      <use xlink:href="#DejaVuSans-69" x="1159.863281"/>
      <use xlink:href="#DejaVuSans-6e" x="1187.646484"/>
      <use xlink:href="#DejaVuSans-65" x="1251.025391"/>
      <use xlink:href="#DejaVuSans-72" x="1312.548828"/>
      <use xlink:href="#DejaVuSans-74" x="1353.662109"/>
      <use xlink:href="#DejaVuSans-69" x="1392.871094"/>
      <use xlink:href="#DejaVuSans-61" x="1420.654297"/>
      <use xlink:href="#DejaVuSans-29" x="1481.933594"/>
     </g>
    </g>
   </g>
   <g id="line2d_17">
    <path d="M 90 367.18615 
L 648 367.18615 
" clip-path="url(#p0f262b2286)" style="fill: none; stroke: #404040; stroke-opacity: 0.6; stroke-width: 1.2; stroke-linecap: square"/>
   </g>
   <g id="line2d_18">
    <path d="M 371.613086 630 
L 371.613086 86.4 
" clip-path="url(#p0f262b2286)" style="fill: none; stroke: #404040; stroke-opacity: 0.6; stroke-width: 1.2; stroke-linecap: square"/>
   </g>
   <g id="patch_5">
    <path d="M 90 630 
L 90 86.4 
" style="fill: none; stroke: #000000; stroke-width: 0.8; stroke-linejoin: miter; stroke-linecap: square"/>
   </g>
   <g id="patch_6">
    <path d="M 648 630 
L 648 86.4 
" style="fill: none; stroke: #000000; stroke-width: 0.8; stroke-linejoin: miter; stroke-linecap: square"/>
   </g>
   <g id="patch_7">
    <path d="M 90 630 
L 648 630 
" style="fill: none; stroke: #000000; stroke-width: 0.8; stroke-linejoin: miter; stroke-linecap: square"/>
   </g>
   <g id="patch_8">
    <path d="M 90 86.4 
L 648 86.4 
" style="fill: none; stroke: #000000; stroke-width: 0.8; stroke-linejoin: miter; stroke-linecap: square"/>
   </g>
   <g id="text_19">
    <!-- 1950_Duras-Marguerite_Un-barrage-contre-le-Pacifique -->
    <g transform="translate(258.784599 503.893213)scale(0.1 -0.1)">
     <defs>
      <path id="DejaVuSans-39" d="M 703 97 
L 703 672 
Q 941 559 1184 500 
Q 1428 441 1663 441 
Q 2288 441 2617 861 
Q 2947 1281 2994 2138 
Q 2813 1869 2534 1725 
Q 2256 1581 1919 1581 
Q 1219 1581 811 2004 
Q 403 2428 403 3163 
Q 403 3881 828 4315 
Q 1253 4750 1959 4750 
Q 2769 4750 3195 4129 
Q 3622 3509 3622 2328 
Q 3622 1225 3098 567 
Q 2575 -91 1691 -91 
Q 1453 -91 1209 -44 
Q 966 3 703 97 
z
M 1959 2075 
Q 2384 2075 2632 2365 
Q 2881 2656 2881 3163 
Q 2881 3666 2632 3958 
Q 2384 4250 1959 4250 
Q 1534 4250 1286 3958 
Q 1038 3666 1038 3163 
Q 1038 2656 1286 2365 
Q 1534 2075 1959 2075 
z
" transform="scale(0.015625)"/>
      <path id="DejaVuSans-5f" d="M 3263 -1063 
L 3263 -1509 
L -63 -1509 
L -63 -1063 
L 3263 -1063 
z
" transform="scale(0.015625)"/>
      <path id="DejaVuSans-44" d="M 1259 4147 
L 1259 519 
L 2022 519 
Q 2988 519 3436 956 
Q 3884 1394 3884 2338 
Q 3884 3275 3436 3711 
Q 2988 4147 2022 4147 
L 1259 4147 
z
M 628 4666 
L 1925 4666 
Q 3281 4666 3915 4102 
Q 4550 3538 4550 2338 
Q 4550 1131 3912 565 
Q 3275 0 1925 0 
L 628 0 
L 628 4666 
z
" transform="scale(0.015625)"/>
      <path id="DejaVuSans-75" d="M 544 1381 
L 544 3500 
L 1119 3500 
L 1119 1403 
Q 1119 906 1312 657 
Q 1506 409 1894 409 
Q 2359 409 2629 706 
Q 2900 1003 2900 1516 
L 2900 3500 
L 3475 3500 
L 3475 0 
L 2900 0 
L 2900 538 
Q 2691 219 2414 64 
Q 2138 -91 1772 -91 
Q 1169 -91 856 284 
Q 544 659 544 1381 
z
M 1991 3584 
L 1991 3584 
z
" transform="scale(0.015625)"/>
      <path id="DejaVuSans-73" d="M 2834 3397 
L 2834 2853 
Q 2591 2978 2328 3040 
Q 2066 3103 1784 3103 
Q 1356 3103 1142 2972 
Q 928 2841 928 2578 
Q 928 2378 1081 2264 
Q 1234 2150 1697 2047 
L 1894 2003 
Q 2506 1872 2764 1633 
Q 3022 1394 3022 966 
Q 3022 478 2636 193 
Q 2250 -91 1575 -91 
Q 1294 -91 989 -36 
Q 684 19 347 128 
L 347 722 
Q 666 556 975 473 
Q 1284 391 1588 391 
Q 1994 391 2212 530 
Q 2431 669 2431 922 
Q 2431 1156 2273 1281 
Q 2116 1406 1581 1522 
L 1381 1569 
Q 847 1681 609 1914 
Q 372 2147 372 2553 
Q 372 3047 722 3315 
Q 1072 3584 1716 3584 
Q 2034 3584 2315 3537 
Q 2597 3491 2834 3397 
z
" transform="scale(0.015625)"/>
      <path id="DejaVuSans-2d" d="M 313 2009 
L 1997 2009 
L 1997 1497 
L 313 1497 
L 313 2009 
z
" transform="scale(0.015625)"/>
      <path id="DejaVuSans-4d" d="M 628 4666 
L 1569 4666 
L 2759 1491 
L 3956 4666 
L 4897 4666 
L 4897 0 
L 4281 0 
L 4281 4097 
L 3078 897 
L 2444 897 
L 1241 4097 
L 1241 0 
L 628 0 
L 628 4666 
z
" transform="scale(0.015625)"/>
      <path id="DejaVuSans-67" d="M 2906 1791 
Q 2906 2416 2648 2759 
Q 2391 3103 1925 3103 
Q 1463 3103 1205 2759 
Q 947 2416 947 1791 
Q 947 1169 1205 825 
Q 1463 481 1925 481 
Q 2391 481 2648 825 
Q 2906 1169 2906 1791 
z
M 3481 434 
Q 3481 -459 3084 -895 
Q 2688 -1331 1869 -1331 
Q 1566 -1331 1297 -1286 
Q 1028 -1241 775 -1147 
L 775 -588 
Q 1028 -725 1275 -790 
Q 1522 -856 1778 -856 
Q 2344 -856 2625 -561 
Q 2906 -266 2906 331 
L 2906 616 
Q 2728 306 2450 153 
Q 2172 0 1784 0 
Q 1141 0 747 490 
Q 353 981 353 1791 
Q 353 2603 747 3093 
Q 1141 3584 1784 3584 
Q 2172 3584 2450 3431 
Q 2728 3278 2906 2969 
L 2906 3500 
L 3481 3500 
L 3481 434 
z
" transform="scale(0.015625)"/>
      <path id="DejaVuSans-55" d="M 556 4666 
L 1191 4666 
L 1191 1831 
Q 1191 1081 1462 751 
Q 1734 422 2344 422 
Q 2950 422 3222 751 
Q 3494 1081 3494 1831 
L 3494 4666 
L 4128 4666 
L 4128 1753 
Q 4128 841 3676 375 
Q 3225 -91 2344 -91 
Q 1459 -91 1007 375 
Q 556 841 556 1753 
L 556 4666 
z
" transform="scale(0.015625)"/>
      <path id="DejaVuSans-62" d="M 3116 1747 
Q 3116 2381 2855 2742 
Q 2594 3103 2138 3103 
Q 1681 3103 1420 2742 
Q 1159 2381 1159 1747 
Q 1159 1113 1420 752 
Q 1681 391 2138 391 
Q 2594 391 2855 752 
Q 3116 1113 3116 1747 
z
M 1159 2969 
Q 1341 3281 1617 3432 
Q 1894 3584 2278 3584 
Q 2916 3584 3314 3078 
Q 3713 2572 3713 1747 
Q 3713 922 3314 415 
Q 2916 -91 2278 -91 
Q 1894 -91 1617 61 
Q 1341 213 1159 525 
L 1159 0 
L 581 0 
L 581 4863 
L 1159 4863 
L 1159 2969 
z
" transform="scale(0.015625)"/>
      <path id="DejaVuSans-63" d="M 3122 3366 
L 3122 2828 
Q 2878 2963 2633 3030 
Q 2388 3097 2138 3097 
Q 1578 3097 1268 2742 
Q 959 2388 959 1747 
Q 959 1106 1268 751 
Q 1578 397 2138 397 
Q 2388 397 2633 464 
Q 2878 531 3122 666 
L 3122 134 
Q 2881 22 2623 -34 
Q 2366 -91 2075 -91 
Q 1284 -91 818 406 
Q 353 903 353 1747 
Q 353 2603 823 3093 
Q 1294 3584 2113 3584 
Q 2378 3584 2631 3529 
Q 2884 3475 3122 3366 
z
" transform="scale(0.015625)"/>
      <path id="DejaVuSans-6c" d="M 603 4863 
L 1178 4863 
L 1178 0 
L 603 0 
L 603 4863 
z
" transform="scale(0.015625)"/>
      <path id="DejaVuSans-50" d="M 1259 4147 
L 1259 2394 
L 2053 2394 
Q 2494 2394 2734 2622 
Q 2975 2850 2975 3272 
Q 2975 3691 2734 3919 
Q 2494 4147 2053 4147 
L 1259 4147 
z
M 628 4666 
L 2053 4666 
Q 2838 4666 3239 4311 
Q 3641 3956 3641 3272 
Q 3641 2581 3239 2228 
Q 2838 1875 2053 1875 
L 1259 1875 
L 1259 0 
L 628 0 
L 628 4666 
z
" transform="scale(0.015625)"/>
      <path id="DejaVuSans-66" d="M 2375 4863 
L 2375 4384 
L 1825 4384 
Q 1516 4384 1395 4259 
Q 1275 4134 1275 3809 
L 1275 3500 
L 2222 3500 
L 2222 3053 
L 1275 3053 
L 1275 0 
L 697 0 
L 697 3053 
L 147 3053 
L 147 3500 
L 697 3500 
L 697 3744 
Q 697 4328 969 4595 
Q 1241 4863 1831 4863 
L 2375 4863 
z
" transform="scale(0.015625)"/>
      <path id="DejaVuSans-71" d="M 947 1747 
Q 947 1113 1208 752 
Q 1469 391 1925 391 
Q 2381 391 2643 752 
Q 2906 1113 2906 1747 
Q 2906 2381 2643 2742 
Q 2381 3103 1925 3103 
Q 1469 3103 1208 2742 
Q 947 2381 947 1747 
z
M 2906 525 
Q 2725 213 2448 61 
Q 2172 -91 1784 -91 
Q 1150 -91 751 415 
Q 353 922 353 1747 
Q 353 2572 751 3078 
Q 1150 3584 1784 3584 
Q 2172 3584 2448 3432 
Q 2725 3281 2906 2969 
L 2906 3500 
L 3481 3500 
L 3481 -1331 
L 2906 -1331 
L 2906 525 
z
" transform="scale(0.015625)"/>
     </defs>
     <use xlink:href="#DejaVuSans-31"/>
     <use xlink:href="#DejaVuSans-39" x="63.623047"/>
     <use xlink:href="#DejaVuSans-35" x="127.246094"/>
     <use xlink:href="#DejaVuSans-30" x="190.869141"/>
     <use xlink:href="#DejaVuSans-5f" x="254.492188"/>
     <use xlink:href="#DejaVuSans-44" x="304.492188"/>
     <use xlink:href="#DejaVuSans-75" x="381.494141"/>
     <use xlink:href="#DejaVuSans-72" x="444.873047"/>
     <use xlink:href="#DejaVuSans-61" x="485.986328"/>
     <use xlink:href="#DejaVuSans-73" x="547.265625"/>
     <use xlink:href="#DejaVuSans-2d" x="599.365234"/>
     <use xlink:href="#DejaVuSans-4d" x="635.449219"/>
     <use xlink:href="#DejaVuSans-61" x="721.728516"/>
     <use xlink:href="#DejaVuSans-72" x="783.007812"/>
     <use xlink:href="#DejaVuSans-67" x="822.371094"/>
     <use xlink:href="#DejaVuSans-75" x="885.847656"/>
     <use xlink:href="#DejaVuSans-65" x="949.226562"/>
     <use xlink:href="#DejaVuSans-72" x="1010.75"/>
     <use xlink:href="#DejaVuSans-69" x="1051.863281"/>
     <use xlink:href="#DejaVuSans-74" x="1079.646484"/>
     <use xlink:href="#DejaVuSans-65" x="1118.855469"/>
     <use xlink:href="#DejaVuSans-5f" x="1180.378906"/>
     <use xlink:href="#DejaVuSans-55" x="1230.378906"/>
     <use xlink:href="#DejaVuSans-6e" x="1303.572266"/>
     <use xlink:href="#DejaVuSans-2d" x="1366.951172"/>
     <use xlink:href="#DejaVuSans-62" x="1403.035156"/>
     <use xlink:href="#DejaVuSans-61" x="1466.511719"/>
     <use xlink:href="#DejaVuSans-72" x="1527.791016"/>
     <use xlink:href="#DejaVuSans-72" x="1567.154297"/>
     <use xlink:href="#DejaVuSans-61" x="1608.267578"/>
     <use xlink:href="#DejaVuSans-67" x="1669.546875"/>
     <use xlink:href="#DejaVuSans-65" x="1733.023438"/>
     <use xlink:href="#DejaVuSans-2d" x="1794.546875"/>
     <use xlink:href="#DejaVuSans-63" x="1830.630859"/>
     <use xlink:href="#DejaVuSans-6f" x="1885.611328"/>
     <use xlink:href="#DejaVuSans-6e" x="1946.792969"/>
     <use xlink:href="#DejaVuSans-74" x="2010.171875"/>
     <use xlink:href="#DejaVuSans-72" x="2049.380859"/>
     <use xlink:href="#DejaVuSans-65" x="2088.244141"/>
     <use xlink:href="#DejaVuSans-2d" x="2149.767578"/>
     <use xlink:href="#DejaVuSans-6c" x="2185.851562"/>
     <use xlink:href="#DejaVuSans-65" x="2213.634766"/>
     <use xlink:href="#DejaVuSans-2d" x="2275.158203"/>
     <use xlink:href="#DejaVuSans-50" x="2311.242188"/>
     <use xlink:href="#DejaVuSans-61" x="2367.044922"/>
     <use xlink:href="#DejaVuSans-63" x="2428.324219"/>
     <use xlink:href="#DejaVuSans-69" x="2483.304688"/>
     <use xlink:href="#DejaVuSans-66" x="2511.087891"/>
     <use xlink:href="#DejaVuSans-69" x="2546.292969"/>
     <use xlink:href="#DejaVuSans-71" x="2574.076172"/>
     <use xlink:href="#DejaVuSans-75" x="2637.552734"/>
     <use xlink:href="#DejaVuSans-65" x="2700.931641"/>
    </g>
   </g>
   <g id="text_20">
    <!-- 1958_Duras-Marguerite_Moderato-cantabile -->
    <g transform="translate(238.823749 325.874195)scale(0.1 -0.1)">
     <defs>
      <path id="DejaVuSans-64" d="M 2906 2969 
L 2906 4863 
L 3481 4863 
L 3481 0 
L 2906 0 
L 2906 525 
Q 2725 213 2448 61 
Q 2172 -91 1784 -91 
Q 1150 -91 751 415 
Q 353 922 353 1747 
Q 353 2572 751 3078 
Q 1150 3584 1784 3584 
Q 2172 3584 2448 3432 
Q 2725 3281 2906 2969 
z
M 947 1747 
Q 947 1113 1208 752 
Q 1469 391 1925 391 
Q 2381 391 2643 752 
Q 2906 1113 2906 1747 
Q 2906 2381 2643 2742 
Q 2381 3103 1925 3103 
Q 1469 3103 1208 2742 
Q 947 2381 947 1747 
z
" transform="scale(0.015625)"/>
     </defs>
     <use xlink:href="#DejaVuSans-31"/>
     <use xlink:href="#DejaVuSans-39" x="63.623047"/>
     <use xlink:href="#DejaVuSans-35" x="127.246094"/>
     <use xlink:href="#DejaVuSans-38" x="190.869141"/>
     <use xlink:href="#DejaVuSans-5f" x="254.492188"/>
     <use xlink:href="#DejaVuSans-44" x="304.492188"/>
     <use xlink:href="#DejaVuSans-75" x="381.494141"/>
     <use xlink:href="#DejaVuSans-72" x="444.873047"/>
     <use xlink:href="#DejaVuSans-61" x="485.986328"/>
     <use xlink:href="#DejaVuSans-73" x="547.265625"/>
     <use xlink:href="#DejaVuSans-2d" x="599.365234"/>
     <use xlink:href="#DejaVuSans-4d" x="635.449219"/>
     <use xlink:href="#DejaVuSans-61" x="721.728516"/>
     <use xlink:href="#DejaVuSans-72" x="783.007812"/>
     <use xlink:href="#DejaVuSans-67" x="822.371094"/>
     <use xlink:href="#DejaVuSans-75" x="885.847656"/>
     <use xlink:href="#DejaVuSans-65" x="949.226562"/>
     <use xlink:href="#DejaVuSans-72" x="1010.75"/>
     <use xlink:href="#DejaVuSans-69" x="1051.863281"/>
     <use xlink:href="#DejaVuSans-74" x="1079.646484"/>
     <use xlink:href="#DejaVuSans-65" x="1118.855469"/>
     <use xlink:href="#DejaVuSans-5f" x="1180.378906"/>
     <use xlink:href="#DejaVuSans-4d" x="1230.378906"/>
     <use xlink:href="#DejaVuSans-6f" x="1316.658203"/>
     <use xlink:href="#DejaVuSans-64" x="1377.839844"/>
     <use xlink:href="#DejaVuSans-65" x="1441.316406"/>
     <use xlink:href="#DejaVuSans-72" x="1502.839844"/>
     <use xlink:href="#DejaVuSans-61" x="1543.953125"/>
     <use xlink:href="#DejaVuSans-74" x="1605.232422"/>
     <use xlink:href="#DejaVuSans-6f" x="1644.441406"/>
     <use xlink:href="#DejaVuSans-2d" x="1707.498047"/>
     <use xlink:href="#DejaVuSans-63" x="1743.582031"/>
     <use xlink:href="#DejaVuSans-61" x="1798.5625"/>
     <use xlink:href="#DejaVuSans-6e" x="1859.841797"/>
     <use xlink:href="#DejaVuSans-74" x="1923.220703"/>
     <use xlink:href="#DejaVuSans-61" x="1962.429688"/>
     <use xlink:href="#DejaVuSans-62" x="2023.708984"/>
     <use xlink:href="#DejaVuSans-69" x="2087.185547"/>
     <use xlink:href="#DejaVuSans-6c" x="2114.96875"/>
     <use xlink:href="#DejaVuSans-65" x="2142.751953"/>
    </g>
   </g>
   <g id="text_21">
    <!-- 1986_Duras-Marguerite_Les-Yeux-Bleus-Cheveux-Noirs -->
    <g transform="translate(359.853918 211.537457)scale(0.1 -0.1)">
     <defs>
      <path id="DejaVuSans-4c" d="M 628 4666 
L 1259 4666 
L 1259 531 
L 3531 531 
L 3531 0 
L 628 0 
L 628 4666 
z
" transform="scale(0.015625)"/>
      <path id="DejaVuSans-59" d="M -13 4666 
L 666 4666 
L 1959 2747 
L 3244 4666 
L 3922 4666 
L 2272 2222 
L 2272 0 
L 1638 0 
L 1638 2222 
L -13 4666 
z
" transform="scale(0.015625)"/>
      <path id="DejaVuSans-78" d="M 3513 3500 
L 2247 1797 
L 3578 0 
L 2900 0 
L 1881 1375 
L 863 0 
L 184 0 
L 1544 1831 
L 300 3500 
L 978 3500 
L 1906 2253 
L 2834 3500 
L 3513 3500 
z
" transform="scale(0.015625)"/>
      <path id="DejaVuSans-42" d="M 1259 2228 
L 1259 519 
L 2272 519 
Q 2781 519 3026 730 
Q 3272 941 3272 1375 
Q 3272 1813 3026 2020 
Q 2781 2228 2272 2228 
L 1259 2228 
z
M 1259 4147 
L 1259 2741 
L 2194 2741 
Q 2656 2741 2882 2914 
Q 3109 3088 3109 3444 
Q 3109 3797 2882 3972 
Q 2656 4147 2194 4147 
L 1259 4147 
z
M 628 4666 
L 2241 4666 
Q 2963 4666 3353 4366 
Q 3744 4066 3744 3513 
Q 3744 3084 3544 2831 
Q 3344 2578 2956 2516 
Q 3422 2416 3680 2098 
Q 3938 1781 3938 1306 
Q 3938 681 3513 340 
Q 3088 0 2303 0 
L 628 0 
L 628 4666 
z
" transform="scale(0.015625)"/>
      <path id="DejaVuSans-68" d="M 3513 2113 
L 3513 0 
L 2938 0 
L 2938 2094 
Q 2938 2591 2744 2837 
Q 2550 3084 2163 3084 
Q 1697 3084 1428 2787 
Q 1159 2491 1159 1978 
L 1159 0 
L 581 0 
L 581 4863 
L 1159 4863 
L 1159 2956 
Q 1366 3272 1645 3428 
Q 1925 3584 2291 3584 
Q 2894 3584 3203 3211 
Q 3513 2838 3513 2113 
z
" transform="scale(0.015625)"/>
      <path id="DejaVuSans-76" d="M 191 3500 
L 800 3500 
L 1894 563 
L 2988 3500 
L 3597 3500 
L 2284 0 
L 1503 0 
L 191 3500 
z
" transform="scale(0.015625)"/>
      <path id="DejaVuSans-4e" d="M 628 4666 
L 1478 4666 
L 3547 763 
L 3547 4666 
L 4159 4666 
L 4159 0 
L 3309 0 
L 1241 3903 
L 1241 0 
L 628 0 
L 628 4666 
z
" transform="scale(0.015625)"/>
     </defs>
     <use xlink:href="#DejaVuSans-31"/>
     <use xlink:href="#DejaVuSans-39" x="63.623047"/>
     <use xlink:href="#DejaVuSans-38" x="127.246094"/>
     <use xlink:href="#DejaVuSans-36" x="190.869141"/>
     <use xlink:href="#DejaVuSans-5f" x="254.492188"/>
     <use xlink:href="#DejaVuSans-44" x="304.492188"/>
     <use xlink:href="#DejaVuSans-75" x="381.494141"/>
     <use xlink:href="#DejaVuSans-72" x="444.873047"/>
     <use xlink:href="#DejaVuSans-61" x="485.986328"/>
     <use xlink:href="#DejaVuSans-73" x="547.265625"/>
     <use xlink:href="#DejaVuSans-2d" x="599.365234"/>
     <use xlink:href="#DejaVuSans-4d" x="635.449219"/>
     <use xlink:href="#DejaVuSans-61" x="721.728516"/>
     <use xlink:href="#DejaVuSans-72" x="783.007812"/>
     <use xlink:href="#DejaVuSans-67" x="822.371094"/>
     <use xlink:href="#DejaVuSans-75" x="885.847656"/>
     <use xlink:href="#DejaVuSans-65" x="949.226562"/>
     <use xlink:href="#DejaVuSans-72" x="1010.75"/>
     <use xlink:href="#DejaVuSans-69" x="1051.863281"/>
     <use xlink:href="#DejaVuSans-74" x="1079.646484"/>
     <use xlink:href="#DejaVuSans-65" x="1118.855469"/>
     <use xlink:href="#DejaVuSans-5f" x="1180.378906"/>
     <use xlink:href="#DejaVuSans-4c" x="1230.378906"/>
     <use xlink:href="#DejaVuSans-65" x="1284.341797"/>
     <use xlink:href="#DejaVuSans-73" x="1345.865234"/>
     <use xlink:href="#DejaVuSans-2d" x="1397.964844"/>
     <use xlink:href="#DejaVuSans-59" x="1422.173828"/>
     <use xlink:href="#DejaVuSans-65" x="1470.007812"/>
     <use xlink:href="#DejaVuSans-75" x="1531.53125"/>
     <use xlink:href="#DejaVuSans-78" x="1594.910156"/>
     <use xlink:href="#DejaVuSans-2d" x="1654.089844"/>
     <use xlink:href="#DejaVuSans-42" x="1686.548828"/>
     <use xlink:href="#DejaVuSans-6c" x="1755.152344"/>
     <use xlink:href="#DejaVuSans-65" x="1782.935547"/>
     <use xlink:href="#DejaVuSans-75" x="1844.458984"/>
     <use xlink:href="#DejaVuSans-73" x="1907.837891"/>
     <use xlink:href="#DejaVuSans-2d" x="1959.9375"/>
     <use xlink:href="#DejaVuSans-43" x="1996.021484"/>
     <use xlink:href="#DejaVuSans-68" x="2065.845703"/>
     <use xlink:href="#DejaVuSans-65" x="2129.224609"/>
     <use xlink:href="#DejaVuSans-76" x="2190.748047"/>
     <use xlink:href="#DejaVuSans-65" x="2249.927734"/>
     <use xlink:href="#DejaVuSans-75" x="2311.451172"/>
     <use xlink:href="#DejaVuSans-78" x="2374.830078"/>
     <use xlink:href="#DejaVuSans-2d" x="2434.009766"/>
     <use xlink:href="#DejaVuSans-4e" x="2470.09375"/>
     <use xlink:href="#DejaVuSans-6f" x="2544.898438"/>
     <use xlink:href="#DejaVuSans-69" x="2606.080078"/>
     <use xlink:href="#DejaVuSans-72" x="2633.863281"/>
     <use xlink:href="#DejaVuSans-73" x="2674.976562"/>
    </g>
   </g>
   <g id="text_22">
    <!-- 1964_Duras-Marguerite_Le-Ravissement-de-Lol-V-Stein -->
    <g transform="translate(386.607983 218.313475)scale(0.1 -0.1)">
     <defs>
      <path id="DejaVuSans-34" d="M 2419 4116 
L 825 1625 
L 2419 1625 
L 2419 4116 
z
M 2253 4666 
L 3047 4666 
L 3047 1625 
L 3713 1625 
L 3713 1100 
L 3047 1100 
L 3047 0 
L 2419 0 
L 2419 1100 
L 313 1100 
L 313 1709 
L 2253 4666 
z
" transform="scale(0.015625)"/>
      <path id="DejaVuSans-52" d="M 2841 2188 
Q 3044 2119 3236 1894 
Q 3428 1669 3622 1275 
L 4263 0 
L 3584 0 
L 2988 1197 
Q 2756 1666 2539 1819 
Q 2322 1972 1947 1972 
L 1259 1972 
L 1259 0 
L 628 0 
L 628 4666 
L 2053 4666 
Q 2853 4666 3247 4331 
Q 3641 3997 3641 3322 
Q 3641 2881 3436 2590 
Q 3231 2300 2841 2188 
z
M 1259 4147 
L 1259 2491 
L 2053 2491 
Q 2509 2491 2742 2702 
Q 2975 2913 2975 3322 
Q 2975 3731 2742 3939 
Q 2509 4147 2053 4147 
L 1259 4147 
z
" transform="scale(0.015625)"/>
      <path id="DejaVuSans-56" d="M 1831 0 
L 50 4666 
L 709 4666 
L 2188 738 
L 3669 4666 
L 4325 4666 
L 2547 0 
L 1831 0 
z
" transform="scale(0.015625)"/>
      <path id="DejaVuSans-53" d="M 3425 4513 
L 3425 3897 
Q 3066 4069 2747 4153 
Q 2428 4238 2131 4238 
Q 1616 4238 1336 4038 
Q 1056 3838 1056 3469 
Q 1056 3159 1242 3001 
Q 1428 2844 1947 2747 
L 2328 2669 
Q 3034 2534 3370 2195 
Q 3706 1856 3706 1288 
Q 3706 609 3251 259 
Q 2797 -91 1919 -91 
Q 1588 -91 1214 -16 
Q 841 59 441 206 
L 441 856 
Q 825 641 1194 531 
Q 1563 422 1919 422 
Q 2459 422 2753 634 
Q 3047 847 3047 1241 
Q 3047 1584 2836 1778 
Q 2625 1972 2144 2069 
L 1759 2144 
Q 1053 2284 737 2584 
Q 422 2884 422 3419 
Q 422 4038 858 4394 
Q 1294 4750 2059 4750 
Q 2388 4750 2728 4690 
Q 3069 4631 3425 4513 
z
" transform="scale(0.015625)"/>
     </defs>
     <use xlink:href="#DejaVuSans-31"/>
     <use xlink:href="#DejaVuSans-39" x="63.623047"/>
     <use xlink:href="#DejaVuSans-36" x="127.246094"/>
     <use xlink:href="#DejaVuSans-34" x="190.869141"/>
     <use xlink:href="#DejaVuSans-5f" x="254.492188"/>
     <use xlink:href="#DejaVuSans-44" x="304.492188"/>
     <use xlink:href="#DejaVuSans-75" x="381.494141"/>
     <use xlink:href="#DejaVuSans-72" x="444.873047"/>
     <use xlink:href="#DejaVuSans-61" x="485.986328"/>
     <use xlink:href="#DejaVuSans-73" x="547.265625"/>
     <use xlink:href="#DejaVuSans-2d" x="599.365234"/>
     <use xlink:href="#DejaVuSans-4d" x="635.449219"/>
     <use xlink:href="#DejaVuSans-61" x="721.728516"/>
     <use xlink:href="#DejaVuSans-72" x="783.007812"/>
     <use xlink:href="#DejaVuSans-67" x="822.371094"/>
     <use xlink:href="#DejaVuSans-75" x="885.847656"/>
     <use xlink:href="#DejaVuSans-65" x="949.226562"/>
     <use xlink:href="#DejaVuSans-72" x="1010.75"/>
     <use xlink:href="#DejaVuSans-69" x="1051.863281"/>
     <use xlink:href="#DejaVuSans-74" x="1079.646484"/>
     <use xlink:href="#DejaVuSans-65" x="1118.855469"/>
     <use xlink:href="#DejaVuSans-5f" x="1180.378906"/>
     <use xlink:href="#DejaVuSans-4c" x="1230.378906"/>
     <use xlink:href="#DejaVuSans-65" x="1284.341797"/>
     <use xlink:href="#DejaVuSans-2d" x="1345.865234"/>
     <use xlink:href="#DejaVuSans-52" x="1381.949219"/>
     <use xlink:href="#DejaVuSans-61" x="1449.181641"/>
     <use xlink:href="#DejaVuSans-76" x="1510.460938"/>
     <use xlink:href="#DejaVuSans-69" x="1569.640625"/>
     <use xlink:href="#DejaVuSans-73" x="1597.423828"/>
     <use xlink:href="#DejaVuSans-73" x="1649.523438"/>
     <use xlink:href="#DejaVuSans-65" x="1701.623047"/>
     <use xlink:href="#DejaVuSans-6d" x="1763.146484"/>
     <use xlink:href="#DejaVuSans-65" x="1860.558594"/>
     <use xlink:href="#DejaVuSans-6e" x="1922.082031"/>
     <use xlink:href="#DejaVuSans-74" x="1985.460938"/>
     <use xlink:href="#DejaVuSans-2d" x="2024.669922"/>
     <use xlink:href="#DejaVuSans-64" x="2060.753906"/>
     <use xlink:href="#DejaVuSans-65" x="2124.230469"/>
     <use xlink:href="#DejaVuSans-2d" x="2185.753906"/>
     <use xlink:href="#DejaVuSans-4c" x="2221.837891"/>
     <use xlink:href="#DejaVuSans-6f" x="2275.800781"/>
     <use xlink:href="#DejaVuSans-6c" x="2336.982422"/>
     <use xlink:href="#DejaVuSans-2d" x="2364.765625"/>
     <use xlink:href="#DejaVuSans-56" x="2394.974609"/>
     <use xlink:href="#DejaVuSans-2d" x="2457.507812"/>
     <use xlink:href="#DejaVuSans-53" x="2493.591797"/>
     <use xlink:href="#DejaVuSans-74" x="2557.068359"/>
     <use xlink:href="#DejaVuSans-65" x="2596.277344"/>
     <use xlink:href="#DejaVuSans-69" x="2657.800781"/>
     <use xlink:href="#DejaVuSans-6e" x="2685.583984"/>
    </g>
   </g>
   <g id="text_23">
    <!-- 1984_Duras-Marguerite_L-Amant -->
    <g transform="translate(399.397164 404.933196)scale(0.1 -0.1)">
     <defs>
      <path id="DejaVuSans-41" d="M 2188 4044 
L 1331 1722 
L 3047 1722 
L 2188 4044 
z
M 1831 4666 
L 2547 4666 
L 4325 0 
L 3669 0 
L 3244 1197 
L 1141 1197 
L 716 0 
L 50 0 
L 1831 4666 
z
" transform="scale(0.015625)"/>
     </defs>
     <use xlink:href="#DejaVuSans-31"/>
     <use xlink:href="#DejaVuSans-39" x="63.623047"/>
     <use xlink:href="#DejaVuSans-38" x="127.246094"/>
     <use xlink:href="#DejaVuSans-34" x="190.869141"/>
     <use xlink:href="#DejaVuSans-5f" x="254.492188"/>
     <use xlink:href="#DejaVuSans-44" x="304.492188"/>
     <use xlink:href="#DejaVuSans-75" x="381.494141"/>
     <use xlink:href="#DejaVuSans-72" x="444.873047"/>
     <use xlink:href="#DejaVuSans-61" x="485.986328"/>
     <use xlink:href="#DejaVuSans-73" x="547.265625"/>
     <use xlink:href="#DejaVuSans-2d" x="599.365234"/>
     <use xlink:href="#DejaVuSans-4d" x="635.449219"/>
     <use xlink:href="#DejaVuSans-61" x="721.728516"/>
     <use xlink:href="#DejaVuSans-72" x="783.007812"/>
     <use xlink:href="#DejaVuSans-67" x="822.371094"/>
     <use xlink:href="#DejaVuSans-75" x="885.847656"/>
     <use xlink:href="#DejaVuSans-65" x="949.226562"/>
     <use xlink:href="#DejaVuSans-72" x="1010.75"/>
     <use xlink:href="#DejaVuSans-69" x="1051.863281"/>
     <use xlink:href="#DejaVuSans-74" x="1079.646484"/>
     <use xlink:href="#DejaVuSans-65" x="1118.855469"/>
     <use xlink:href="#DejaVuSans-5f" x="1180.378906"/>
     <use xlink:href="#DejaVuSans-4c" x="1230.378906"/>
     <use xlink:href="#DejaVuSans-2d" x="1284.341797"/>
     <use xlink:href="#DejaVuSans-41" x="1318.175781"/>
     <use xlink:href="#DejaVuSans-6d" x="1386.583984"/>
     <use xlink:href="#DejaVuSans-61" x="1483.996094"/>
     <use xlink:href="#DejaVuSans-6e" x="1545.275391"/>
     <use xlink:href="#DejaVuSans-74" x="1608.654297"/>
    </g>
   </g>
   <g id="text_24">
    <!-- 1985_Duras-Marguerite_La-Douleur -->
    <g transform="translate(333.000051 411.099321)scale(0.1 -0.1)">
     <use xlink:href="#DejaVuSans-31"/>
     <use xlink:href="#DejaVuSans-39" x="63.623047"/>
     <use xlink:href="#DejaVuSans-38" x="127.246094"/>
     <use xlink:href="#DejaVuSans-35" x="190.869141"/>
     <use xlink:href="#DejaVuSans-5f" x="254.492188"/>
     <use xlink:href="#DejaVuSans-44" x="304.492188"/>
     <use xlink:href="#DejaVuSans-75" x="381.494141"/>
     <use xlink:href="#DejaVuSans-72" x="444.873047"/>
     <use xlink:href="#DejaVuSans-61" x="485.986328"/>
     <use xlink:href="#DejaVuSans-73" x="547.265625"/>
     <use xlink:href="#DejaVuSans-2d" x="599.365234"/>
     <use xlink:href="#DejaVuSans-4d" x="635.449219"/>
     <use xlink:href="#DejaVuSans-61" x="721.728516"/>
     <use xlink:href="#DejaVuSans-72" x="783.007812"/>
     <use xlink:href="#DejaVuSans-67" x="822.371094"/>
     <use xlink:href="#DejaVuSans-75" x="885.847656"/>
     <use xlink:href="#DejaVuSans-65" x="949.226562"/>
     <use xlink:href="#DejaVuSans-72" x="1010.75"/>
     <use xlink:href="#DejaVuSans-69" x="1051.863281"/>
     <use xlink:href="#DejaVuSans-74" x="1079.646484"/>
     <use xlink:href="#DejaVuSans-65" x="1118.855469"/>
     <use xlink:href="#DejaVuSans-5f" x="1180.378906"/>
     <use xlink:href="#DejaVuSans-4c" x="1230.378906"/>
     <use xlink:href="#DejaVuSans-61" x="1286.091797"/>
     <use xlink:href="#DejaVuSans-2d" x="1347.371094"/>
     <use xlink:href="#DejaVuSans-44" x="1383.455078"/>
     <use xlink:href="#DejaVuSans-6f" x="1460.457031"/>
     <use xlink:href="#DejaVuSans-75" x="1521.638672"/>
     <use xlink:href="#DejaVuSans-6c" x="1585.017578"/>
     <use xlink:href="#DejaVuSans-65" x="1612.800781"/>
     <use xlink:href="#DejaVuSans-75" x="1674.324219"/>
     <use xlink:href="#DejaVuSans-72" x="1737.703125"/>
    </g>
   </g>
   <g id="text_25">
    <!-- 1987_Duras-Marguerite_La-Vie-Materielle -->
    <g transform="translate(426.238272 466.695299)scale(0.1 -0.1)">
     <use xlink:href="#DejaVuSans-31"/>
     <use xlink:href="#DejaVuSans-39" x="63.623047"/>
     <use xlink:href="#DejaVuSans-38" x="127.246094"/>
     <use xlink:href="#DejaVuSans-37" x="190.869141"/>
     <use xlink:href="#DejaVuSans-5f" x="254.492188"/>
     <use xlink:href="#DejaVuSans-44" x="304.492188"/>
     <use xlink:href="#DejaVuSans-75" x="381.494141"/>
     <use xlink:href="#DejaVuSans-72" x="444.873047"/>
     <use xlink:href="#DejaVuSans-61" x="485.986328"/>
     <use xlink:href="#DejaVuSans-73" x="547.265625"/>
     <use xlink:href="#DejaVuSans-2d" x="599.365234"/>
     <use xlink:href="#DejaVuSans-4d" x="635.449219"/>
     <use xlink:href="#DejaVuSans-61" x="721.728516"/>
     <use xlink:href="#DejaVuSans-72" x="783.007812"/>
     <use xlink:href="#DejaVuSans-67" x="822.371094"/>
     <use xlink:href="#DejaVuSans-75" x="885.847656"/>
     <use xlink:href="#DejaVuSans-65" x="949.226562"/>
     <use xlink:href="#DejaVuSans-72" x="1010.75"/>
     <use xlink:href="#DejaVuSans-69" x="1051.863281"/>
     <use xlink:href="#DejaVuSans-74" x="1079.646484"/>
     <use xlink:href="#DejaVuSans-65" x="1118.855469"/>
     <use xlink:href="#DejaVuSans-5f" x="1180.378906"/>
     <use xlink:href="#DejaVuSans-4c" x="1230.378906"/>
     <use xlink:href="#DejaVuSans-61" x="1286.091797"/>
     <use xlink:href="#DejaVuSans-2d" x="1347.371094"/>
     <use xlink:href="#DejaVuSans-56" x="1377.580078"/>
     <use xlink:href="#DejaVuSans-69" x="1443.738281"/>
     <use xlink:href="#DejaVuSans-65" x="1471.521484"/>
     <use xlink:href="#DejaVuSans-2d" x="1533.044922"/>
     <use xlink:href="#DejaVuSans-4d" x="1569.128906"/>
     <use xlink:href="#DejaVuSans-61" x="1655.408203"/>
     <use xlink:href="#DejaVuSans-74" x="1716.6875"/>
     <use xlink:href="#DejaVuSans-65" x="1755.896484"/>
     <use xlink:href="#DejaVuSans-72" x="1817.419922"/>
     <use xlink:href="#DejaVuSans-69" x="1858.533203"/>
     <use xlink:href="#DejaVuSans-65" x="1886.316406"/>
     <use xlink:href="#DejaVuSans-6c" x="1947.839844"/>
     <use xlink:href="#DejaVuSans-6c" x="1975.623047"/>
     <use xlink:href="#DejaVuSans-65" x="2003.40625"/>
    </g>
   </g>
   <g id="text_26">
    <!-- 1995_Duras-Marguerite_Ecrire -->
    <g transform="translate(570.198954 395.143041)scale(0.1 -0.1)">
     <defs>
      <path id="DejaVuSans-45" d="M 628 4666 
L 3578 4666 
L 3578 4134 
L 1259 4134 
L 1259 2753 
L 3481 2753 
L 3481 2222 
L 1259 2222 
L 1259 531 
L 3634 531 
L 3634 0 
L 628 0 
L 628 4666 
z
" transform="scale(0.015625)"/>
     </defs>
     <use xlink:href="#DejaVuSans-31"/>
     <use xlink:href="#DejaVuSans-39" x="63.623047"/>
     <use xlink:href="#DejaVuSans-39" x="127.246094"/>
     <use xlink:href="#DejaVuSans-35" x="190.869141"/>
     <use xlink:href="#DejaVuSans-5f" x="254.492188"/>
     <use xlink:href="#DejaVuSans-44" x="304.492188"/>
     <use xlink:href="#DejaVuSans-75" x="381.494141"/>
     <use xlink:href="#DejaVuSans-72" x="444.873047"/>
     <use xlink:href="#DejaVuSans-61" x="485.986328"/>
     <use xlink:href="#DejaVuSans-73" x="547.265625"/>
     <use xlink:href="#DejaVuSans-2d" x="599.365234"/>
     <use xlink:href="#DejaVuSans-4d" x="635.449219"/>
     <use xlink:href="#DejaVuSans-61" x="721.728516"/>
     <use xlink:href="#DejaVuSans-72" x="783.007812"/>
     <use xlink:href="#DejaVuSans-67" x="822.371094"/>
     <use xlink:href="#DejaVuSans-75" x="885.847656"/>
     <use xlink:href="#DejaVuSans-65" x="949.226562"/>
     <use xlink:href="#DejaVuSans-72" x="1010.75"/>
     <use xlink:href="#DejaVuSans-69" x="1051.863281"/>
     <use xlink:href="#DejaVuSans-74" x="1079.646484"/>
     <use xlink:href="#DejaVuSans-65" x="1118.855469"/>
     <use xlink:href="#DejaVuSans-5f" x="1180.378906"/>
     <use xlink:href="#DejaVuSans-45" x="1230.378906"/>
     <use xlink:href="#DejaVuSans-63" x="1293.5625"/>
     <use xlink:href="#DejaVuSans-72" x="1348.542969"/>
     <use xlink:href="#DejaVuSans-69" x="1389.65625"/>
     <use xlink:href="#DejaVuSans-72" x="1417.439453"/>
     <use xlink:href="#DejaVuSans-65" x="1456.302734"/>
    </g>
   </g>
   <g id="text_27">
    <!-- Row principal coordinates -->
    <g transform="translate(291.717188 80.4)scale(0.12 -0.12)">
     <defs>
      <path id="DejaVuSans-77" d="M 269 3500 
L 844 3500 
L 1563 769 
L 2278 3500 
L 2956 3500 
L 3675 769 
L 4391 3500 
L 4966 3500 
L 4050 0 
L 3372 0 
L 2619 2869 
L 1863 0 
L 1184 0 
L 269 3500 
z
" transform="scale(0.015625)"/>
     </defs>
     <use xlink:href="#DejaVuSans-52"/>
     <use xlink:href="#DejaVuSans-6f" x="64.982422"/>
     <use xlink:href="#DejaVuSans-77" x="126.164062"/>
     <use xlink:href="#DejaVuSans-20" x="207.951172"/>
     <use xlink:href="#DejaVuSans-70" x="239.738281"/>
     <use xlink:href="#DejaVuSans-72" x="303.214844"/>
     <use xlink:href="#DejaVuSans-69" x="344.328125"/>
     <use xlink:href="#DejaVuSans-6e" x="372.111328"/>
     <use xlink:href="#DejaVuSans-63" x="435.490234"/>
     <use xlink:href="#DejaVuSans-69" x="490.470703"/>
     <use xlink:href="#DejaVuSans-70" x="518.253906"/>
     <use xlink:href="#DejaVuSans-61" x="581.730469"/>
     <use xlink:href="#DejaVuSans-6c" x="643.009766"/>
     <use xlink:href="#DejaVuSans-20" x="670.792969"/>
     <use xlink:href="#DejaVuSans-63" x="702.580078"/>
     <use xlink:href="#DejaVuSans-6f" x="757.560547"/>
     <use xlink:href="#DejaVuSans-6f" x="818.742188"/>
     <use xlink:href="#DejaVuSans-72" x="879.923828"/>
     <use xlink:href="#DejaVuSans-64" x="919.287109"/>
     <use xlink:href="#DejaVuSans-69" x="982.763672"/>
     <use xlink:href="#DejaVuSans-6e" x="1010.546875"/>
     <use xlink:href="#DejaVuSans-61" x="1073.925781"/>
     <use xlink:href="#DejaVuSans-74" x="1135.205078"/>
     <use xlink:href="#DejaVuSans-65" x="1174.414062"/>
     <use xlink:href="#DejaVuSans-73" x="1235.9375"/>
    </g>
   </g>
   <g id="legend_1">
    <g id="patch_9">
     <path d="M 554.785938 625 
L 641 625 
Q 643 625 643 623 
L 643 594.365625 
Q 643 592.365625 641 592.365625 
L 554.785938 592.365625 
Q 552.785938 592.365625 552.785938 594.365625 
L 552.785938 623 
Q 552.785938 625 554.785938 625 
z
" style="fill: #ffffff; opacity: 0.8; stroke: #cccccc; stroke-linejoin: miter"/>
    </g>
    <g id="PathCollection_3">
     <g>
      <use xlink:href="#mcec3ad88fa" x="566.785938" y="601.339062" style="fill: #1f77b4; stroke: #1f77b4"/>
     </g>
    </g>
    <g id="text_28">
     <!-- canon -->
     <g transform="translate(584.785938 603.964062)scale(0.1 -0.1)">
      <use xlink:href="#DejaVuSans-63"/>
      <use xlink:href="#DejaVuSans-61" x="54.980469"/>
      <use xlink:href="#DejaVuSans-6e" x="116.259766"/>
      <use xlink:href="#DejaVuSans-6f" x="179.638672"/>
      <use xlink:href="#DejaVuSans-6e" x="240.820312"/>
     </g>
    </g>
    <g id="PathCollection_4">
     <g>
      <use xlink:href="#mb01beaa273" x="566.785938" y="616.017187" style="fill: #ff7f0e; stroke: #ff7f0e"/>
     </g>
    </g>
    <g id="text_29">
     <!-- non_canon -->
     <g transform="translate(584.785938 618.642187)scale(0.1 -0.1)">
      <use xlink:href="#DejaVuSans-6e"/>
      <use xlink:href="#DejaVuSans-6f" x="63.378906"/>
      <use xlink:href="#DejaVuSans-6e" x="124.560547"/>
      <use xlink:href="#DejaVuSans-5f" x="187.939453"/>
      <use xlink:href="#DejaVuSans-63" x="237.939453"/>
      <use xlink:href="#DejaVuSans-61" x="292.919922"/>
      <use xlink:href="#DejaVuSans-6e" x="354.199219"/>
      <use xlink:href="#DejaVuSans-6f" x="417.578125"/>
      <use xlink:href="#DejaVuSans-6e" x="478.759766"/>
     </g>
    </g>
   </g>
  </g>
 </g>
 <defs>
  <clipPath id="p0f262b2286">
   <rect x="90" y="86.4" width="558" height="543.6"/>
  </clipPath>
 </defs>
</svg>
